<svg width="122" height="123" viewBox="0 0 122 123" fill="none" xmlns="http://www.w3.org/2000/svg">
<path d="M29.8308 8.671C48.671 -1.50777 67.9302 -3.22134 86.9992 6.18756C110.504 17.7852 122.796 37.387 121.657 63.627C120.5 90.2522 106.35 108.568 81.2693 118.715C63.9956 124.217 47.4491 123.379 31.7872 114.615C-9.69427 91.4017 -10.8162 34.0251 29.8308 8.671ZM95.5019 84.7026C93.0569 88.3402 89.664 89.8249 85.5882 88.1286C81.5199 86.4354 80.4215 83.0392 80.8508 78.6728C81.0238 76.9136 80.0071 74.5398 78.7319 73.2168C70.7541 64.9399 62.5502 56.8809 54.421 48.75C46.0561 40.3833 37.7206 31.9868 29.287 23.69C28.2782 22.6976 26.7351 22.2483 25.4397 21.5472C24.806 22.3904 24.1723 23.2336 23.5386 24.0768C25.2174 25.1818 26.9314 26.2373 28.5685 27.4009C33.8957 31.1874 36.0735 36.2095 35.3469 42.8355C35.1359 44.7596 36.4289 47.3273 37.8366 48.8629C42.5613 54.017 47.6253 58.8623 52.6064 63.7784C55.8076 66.9378 58.2943 70.6251 64.2329 69.3939C68.6609 68.476 71.9388 73.4058 71.2851 78.1819C70.6932 82.5059 65.6579 85.9783 61.2216 85.1217C57.882 84.4769 54.8139 78.9009 55.2747 75.3695C55.5059 73.5979 55.0405 71.111 53.8903 69.8874C47.6166 63.2133 40.9265 56.9312 34.6352 50.2728C33.2208 48.7757 31.8069 46.1303 32.1336 44.3293C33.7938 35.1748 27.585 30.9674 21.6976 25.9623C20.3719 27.3559 19.2717 28.5124 18.1715 29.6689C18.6371 29.6702 19.1027 29.6716 19.5683 29.6729C20.2899 32.8752 21.2347 36.0481 21.663 39.2892C22.0092 41.9096 21.7307 44.6122 21.7337 47.2783C21.7439 56.2221 28.3155 62.9726 37.2555 63.2249C42.1403 63.3628 45.2907 66.7267 45.002 71.4962C44.7378 75.8599 40.6668 79.4624 36.2429 79.2473C32.6424 79.0723 27.9746 73.7047 29.1285 70.0219C31.2074 63.3867 25.6276 62.4501 22.6081 58.6515C19.9101 71.4143 27.668 81.5746 39.607 82.231C44.1444 82.4804 47.3072 86.0043 46.9959 90.4632C46.7122 94.5275 42.9593 97.9482 38.9953 97.7557C34.6392 97.5441 30.5315 93.6822 31.5895 89.4943C32.6984 85.1049 30.64 82.8831 27.943 80.6883C21.5833 75.5128 17.0279 69.6778 18.8587 60.7467C20.3377 53.5312 15.2178 50.1702 10.1871 46.1958C9.67623 48.1634 9.21829 49.5836 8.94289 51.0383C2.31437 86.0501 30.7826 117.714 66.1806 114.056C82.0551 112.416 95.2469 105.082 104.786 90.945C117.59 71.272 117.04 47.3314 103.372 29.2871C91.8949 14.1353 70.1154 4.82596 55.7123 9.20747C59.8175 12.5209 61.6909 18.5083 69.0185 16.503C72.7223 15.4894 76.6939 20.139 76.6961 24.0155C76.6985 28.0844 73.2947 31.8181 69.2867 32.1431C65.245 32.4709 60.2607 28.9744 61.1342 25.2287C62.8686 17.7912 57.3229 15.0416 53.5667 11.0645C52.6797 10.1253 50.8029 9.17747 49.7576 9.4903C44.5136 11.0597 39.3945 13.0463 33.2385 15.2402C38.9664 20.8673 43.3966 25.6362 48.3074 29.8442C50.3443 31.5896 53.4811 33.1891 55.9913 33.0165C61.8927 32.6107 66.2863 34.4053 69.8111 39.0105C71.3469 41.0171 73.0063 42.1691 76.123 41.4794C81.3433 40.3241 85.6473 44.1512 85.6229 49.0714C85.6023 53.2121 81.6247 57.1396 77.5611 57.0316C72.5894 56.8995 69.4756 52.7128 69.9473 47.3526C70.0963 45.6602 69.6364 43.5502 68.6692 42.1905C65.5161 37.7579 61.3553 35.0925 55.5281 36.1671C51.932 36.8303 49.2492 35.3714 46.7804 32.6684C42.6294 28.1236 38.1784 23.8457 33.7257 19.5894C32.7654 18.6714 31.262 18.3216 30.0088 17.7101C29.6072 19.3276 29.7323 19.8525 30.0572 20.1782C47.3448 37.5092 64.6359 54.8368 81.9933 72.0978C82.8145 72.9144 84.2534 73.5793 85.3809 73.5445C94.6743 73.2576 96.7501 75.2805 95.5019 84.7026ZM41.8096 73.5226C43.1054 68.5066 40.4917 64.6648 36.4509 66.0055C34.8797 66.5268 33.0126 68.3992 32.7276 69.9263C32.4396 71.469 33.6029 74.4836 34.7392 74.8246C36.7008 75.4132 39.1335 74.4317 41.8096 73.5226ZM86.1669 76.4069C85.456 78.6814 84.146 80.9963 84.2956 83.2127C84.3668 84.2668 87.3733 86.0736 88.7716 85.844C90.4813 85.5632 92.5968 83.8008 93.2993 82.1519C94.8196 78.5832 92.0699 76.1894 86.1669 76.4069ZM34.255 89.0508C34.3545 93.0352 36.2807 95.4845 40.3667 94.8436C43.7279 94.3164 44.9727 91.5408 43.9383 88.4728C43.4605 87.0556 41.3835 85.0081 40.3702 85.1851C38.2832 85.5497 36.4239 87.2174 34.255 89.0508ZM66.4804 72.81C64.2424 73.0577 61.7508 72.8075 59.874 73.764C58.9427 74.2386 58.5037 77.1313 58.9596 78.5777C59.9462 81.7078 62.6671 83.0023 65.6182 81.4656C69.221 79.5897 69.6772 76.585 66.4804 72.81ZM16.0634 33.2171C10.0982 41.6207 10.6897 45.1729 18.9279 48.5226C18.9279 44.9219 19.164 41.4327 18.8286 37.9993C18.6601 36.2745 17.4523 34.6512 16.0634 33.2171ZM72.1381 20.4086C68.7347 18.2038 65.6187 18.5126 64.1866 22.4441C63.6291 23.9747 64.492 26.9448 65.7526 27.9537C66.9878 28.9421 69.954 28.9975 71.446 28.1716C74.2935 26.5953 74.5777 23.7818 72.1381 20.4086ZM72.8361 50.4458C74.2556 54.0067 76.9424 55.5087 80.1392 53.3593C81.5846 52.3874 82.6574 49.3904 82.2902 47.6519C81.9887 46.2244 79.3917 44.5021 77.6644 44.3211C74.2983 43.9684 72.7496 46.3477 72.8361 50.4458Z" fill="#F8F9FC"/>
<path d="M104.231 91.3141C95.2469 105.083 82.0551 112.417 66.1806 114.057C30.7826 117.714 2.31434 86.0508 8.94286 51.0389C9.21827 49.5843 9.6762 48.1641 10.1871 46.1965C15.2177 50.1709 20.3377 53.5319 18.8586 60.7474C17.0279 69.6785 21.5832 75.5135 27.9429 80.689C30.64 82.8838 32.6983 85.1056 31.5895 89.495C30.5315 93.6829 34.6392 97.5448 38.9953 97.7564C42.9593 97.9489 46.7121 94.5281 46.9959 90.4639C47.3072 86.005 44.1443 82.4811 39.607 82.2316C27.668 81.5753 19.9101 71.4149 22.6081 58.6522C25.6275 62.4508 31.2074 63.3874 29.1284 70.0226C27.9745 73.7054 32.6423 79.0729 36.2429 79.248C40.6667 79.4631 44.7377 75.8606 45.0019 71.4969C45.2907 66.7274 42.1402 63.3634 37.2555 63.2256C28.3155 62.9733 21.7439 56.2228 21.7337 47.279C21.7306 44.6129 22.0092 41.9103 21.6629 39.2899C21.2347 36.0488 20.2899 32.8759 19.5682 29.6736C19.1027 29.6722 18.6371 29.6709 18.1715 29.6695C19.2717 28.5131 20.3718 27.3566 21.6976 25.963C27.585 30.9681 33.7938 35.1754 32.1335 44.33C31.8069 46.131 33.2208 48.7764 34.6352 50.2734C40.9264 56.9319 47.6166 63.214 53.8902 69.8881C55.0404 71.1117 55.5058 73.5986 55.2747 75.3702C54.8139 78.9016 57.882 84.4776 61.2216 85.1224C65.6579 85.979 70.6932 82.5066 71.285 78.1826C71.9388 73.4065 68.6609 68.4766 64.2329 69.3946C58.2942 70.6257 55.8076 66.9385 52.6064 63.779C47.6253 58.863 42.5613 54.0176 37.8365 48.8635C36.4289 47.328 35.1358 44.7603 35.3468 42.8362C36.0735 36.2102 33.8956 31.1881 28.5685 27.4016C26.9314 26.2379 25.2174 25.1825 23.5386 24.0775C24.1723 23.2343 24.806 22.3911 25.4397 21.5479C26.7351 22.2489 28.2782 22.6983 29.287 23.6907C37.7206 31.9875 46.0561 40.384 54.4209 48.7506C62.5502 56.8816 70.7541 64.9406 78.7319 73.2175C80.0071 74.5405 81.0238 76.9142 80.8508 78.6735C80.4215 83.0399 81.5198 86.4361 85.5882 88.1293C89.664 89.8256 93.0569 88.3408 96.0597 84.626C99.1554 86.8039 101.693 89.059 104.231 91.3141Z" fill="#7393BF"/>
<path d="M104.509 91.1291C101.693 89.0582 99.1555 86.8031 96.318 84.4013C96.7502 75.2804 94.6744 73.2575 85.381 73.5444C84.2535 73.5792 82.8146 72.9143 81.9934 72.0977C64.636 54.8367 47.3448 37.5091 30.0573 20.1781C29.7324 19.8524 29.6073 19.3274 30.0088 17.71C31.2621 18.3215 32.7655 18.6713 33.7258 19.5892C38.1785 23.8456 42.6294 28.1235 46.7804 32.6683C49.2492 35.3713 51.9321 36.8302 55.5282 36.167C61.3554 35.0924 65.5162 37.7578 68.6692 42.1903C69.6365 43.5501 70.0964 45.6601 69.9474 47.3525C69.4756 52.7127 72.5894 56.8994 77.5612 57.0315C81.6248 57.1394 85.6024 53.212 85.6229 49.0712C85.6473 44.1511 81.3434 40.324 76.123 41.4793C73.0064 42.169 71.347 41.017 69.8111 39.0104C66.2864 34.4052 61.8928 32.6106 55.9913 33.0164C53.4812 33.189 50.3444 31.5895 48.3075 29.8441C43.3967 25.636 38.9664 20.8672 33.2386 15.2401C39.3945 13.0462 44.5136 11.0595 49.7576 9.49019C50.803 9.17735 52.6797 10.1252 53.5668 11.0644C57.323 15.0415 62.8687 17.7911 61.1343 25.2285C60.2608 28.9743 65.2451 32.4708 69.2868 32.143C73.2948 31.818 76.6986 28.0842 76.6962 24.0154C76.6939 20.1389 72.7224 15.4893 69.0186 16.5029C61.691 18.5082 59.8176 12.5208 55.7124 9.20736C70.1155 4.82584 91.895 14.1352 103.372 29.287C117.04 47.3313 117.59 71.2719 104.509 91.1291Z" fill="#7796C1"/>
<path d="M41.589 73.8164C39.1335 74.4323 36.7007 75.4138 34.7392 74.8252C33.6029 74.4842 32.4396 71.4696 32.7275 69.9269C33.0126 68.3998 34.8796 66.5274 36.4508 66.0061C40.4916 64.6654 43.1054 68.5072 41.589 73.8164Z" fill="#7F9CC5"/>
<path d="M86.5418 76.2767C92.0699 76.1895 94.8197 78.5833 93.2993 82.1519C92.5968 83.8009 90.4814 85.5633 88.7717 85.8441C87.3733 86.0737 84.3668 84.2668 84.2957 83.2128C84.1461 80.9964 85.456 78.6815 86.5418 76.2767Z" fill="#7F9CC5"/>
<path d="M34.3628 88.7003C36.4238 87.2179 38.2831 85.5502 40.3701 85.1856C41.3834 85.0085 43.4604 87.056 43.9382 88.4733C44.9726 91.5412 43.7278 94.3168 40.3666 94.844C36.2806 95.4849 34.3544 93.0356 34.3628 88.7003Z" fill="#7E9BC4"/>
<path d="M66.7808 73.0603C69.6772 76.5855 69.221 79.5902 65.6182 81.4662C62.6671 83.0028 59.9461 81.7083 58.9596 78.5783C58.5037 77.1318 58.9426 74.2391 59.874 73.7645C61.7507 72.8081 64.2424 73.0582 66.7808 73.0603Z" fill="#7E9BC5"/>
<path d="M16.389 33.0996C17.4523 34.6513 18.6601 36.2746 18.8286 37.9994C19.1641 41.4327 18.9279 44.9219 18.9279 48.5227C10.6897 45.1729 10.0982 41.6208 16.389 33.0996Z" fill="#7E9BC4"/>
<path d="M72.4067 20.6928C74.5776 23.7821 74.2933 26.5957 71.4458 28.1719C69.9538 28.9978 66.9876 28.9425 65.7525 27.954C64.4918 26.9451 63.629 23.9751 64.1865 22.4444C65.6185 18.5129 68.7345 18.2042 72.4067 20.6928Z" fill="#7B99C3"/>
<path d="M72.7675 50.0431C72.7496 46.3482 74.2984 43.9689 77.6644 44.3217C79.3918 44.5027 81.9888 46.2249 82.2903 47.6525C82.6575 49.3909 81.5847 52.3879 80.1392 53.3598C76.9425 55.5092 74.2557 54.0072 72.7675 50.0431Z" fill="#7B99C3"/>
</svg>
