<svg width="666" height="210" viewBox="0 0 666 210" fill="none" xmlns="http://www.w3.org/2000/svg">
<path d="M0 0H666V210H0V0Z" />
<path d="M223.64 69.136C232.344 69.136 239.224 70.352 244.28 72.784C249.4 75.152 253.272 77.808 255.896 80.752C258.008 83.184 259.736 86 261.08 89.2C262.424 92.336 263.096 96.112 263.096 100.528C263.096 103.792 262.36 107.216 260.888 110.8C259.416 114.32 257.496 117.168 255.128 119.344C252.632 121.712 250.264 123.632 248.024 125.104C245.848 126.576 242.872 127.792 239.096 128.752C235.384 129.648 230.648 130.096 224.888 130.096C220.536 130.096 216.6 129.616 213.08 128.656C209.56 127.632 207.8 125.936 207.8 123.568C207.8 122.608 208.216 121.872 209.048 121.36C209.944 120.784 210.904 120.496 211.928 120.496C212.504 120.496 212.888 120.528 213.08 120.592C213.528 116.368 213.752 111.888 213.752 107.152C213.752 101.84 213.624 97.456 213.368 94C213.112 90.48 212.76 86.992 212.312 83.536C212.248 83.088 212.088 81.84 211.832 79.792C211.64 77.744 211.544 75.664 211.544 73.552C211.544 72.208 212.216 71.088 213.56 70.192C214.904 69.232 216.28 68.752 217.688 68.752C218.52 68.752 219.64 68.816 221.048 68.944C222.2 69.072 223.064 69.136 223.64 69.136ZM222.392 121.072C223.928 121.328 225.944 121.456 228.44 121.456C232.664 121.456 236.664 120.592 240.44 118.864C244.216 117.072 247.256 114.608 249.56 111.472C251.864 108.272 253.016 104.592 253.016 100.432C253.016 96.08 252.248 92.368 250.712 89.296C249.176 86.224 246.808 83.696 243.608 81.712C241.24 80.24 238.328 79.184 234.872 78.544C231.416 77.84 227.256 77.488 222.392 77.488C222.392 79.024 222.488 80.944 222.68 83.248C222.68 84.016 222.744 85.36 222.872 87.28C223.256 94.704 223.448 100.688 223.448 105.232C223.448 111.824 223.096 117.104 222.392 121.072ZM270.883 109.648C270.883 107.216 271.331 104.784 272.227 102.352C273.123 99.856 274.307 97.584 275.779 95.536C277.251 93.488 279.587 91.824 282.787 90.544C285.987 89.2 288.835 88.528 291.331 88.528C293.891 88.528 296.483 88.88 299.107 89.584C301.795 90.288 303.651 91.376 304.675 92.848C307.043 96.176 308.227 99.44 308.227 102.64C308.227 104.368 307.843 105.84 307.075 107.056C306.371 108.272 305.347 109.584 304.003 110.992C302.915 112.144 301.187 112.912 298.819 113.296C296.515 113.68 294.211 113.872 291.906 113.872C290.435 113.872 288.643 113.744 286.531 113.488C284.419 113.168 282.371 112.784 280.387 112.336C280.515 113.616 280.835 114.864 281.347 116.08C281.859 117.296 282.467 118.224 283.171 118.864C284.451 120.08 285.763 120.848 287.107 121.168C288.515 121.488 290.307 121.648 292.483 121.648C294.787 121.648 296.931 121.264 298.915 120.496C300.515 119.92 301.827 119.632 302.851 119.632C304.067 119.632 304.995 120.016 305.635 120.784C306.275 121.488 306.595 122.416 306.595 123.568C306.595 125.168 305.667 126.48 303.811 127.504C301.955 128.528 299.811 129.296 297.379 129.808C295.011 130.256 293.091 130.48 291.619 130.48C288.611 130.48 285.699 129.936 282.883 128.848C280.067 127.76 277.731 126.224 275.875 124.24C274.339 122.448 273.123 120.304 272.227 117.808C271.331 115.248 270.883 112.528 270.883 109.648ZM291.811 96.688C290.403 96.688 288.995 96.976 287.587 97.552C286.179 98.064 285.027 98.8 284.131 99.76C282.979 100.976 282.179 101.968 281.731 102.736C281.347 103.44 281.091 104.432 280.963 105.712C282.563 106.224 285.891 106.48 290.947 106.48C293.699 106.48 295.811 106.064 297.283 105.232C298.819 104.4 299.587 103.312 299.587 101.968C299.587 100.624 298.755 99.408 297.091 98.32C295.427 97.232 293.667 96.688 291.811 96.688ZM339.673 105.328C339.865 104.816 340.537 102.96 341.689 99.76C342.905 96.56 344.025 94.128 345.049 92.464C346.713 89.84 348.185 88.528 349.465 88.528C351.257 88.528 352.633 88.88 353.593 89.584C354.553 90.224 355.033 91.152 355.033 92.368C355.033 92.944 354.777 93.744 354.265 94.768C353.817 95.792 353.561 96.4 353.497 96.592C350.937 102.224 348.633 108.272 346.585 114.736L344.569 122.224C343.801 124.656 342.489 126.64 340.633 128.176C338.777 129.648 336.601 130.384 334.105 130.384C331.865 130.384 329.785 129.36 327.865 127.312C326.713 125.52 325.497 123.248 324.217 120.496C323.001 117.744 321.945 115.056 321.049 112.432L317.689 102.352C316.985 100.368 316.409 98.672 315.961 97.264C315.577 95.856 315.385 94.576 315.385 93.424C315.321 92.08 315.705 90.992 316.537 90.16C317.369 89.328 318.521 88.912 319.993 88.912C321.657 88.912 322.841 89.264 323.545 89.968C324.249 90.608 324.889 91.632 325.465 93.04C325.721 94.512 326.425 97.52 327.577 102.064L328.249 104.752C328.825 106.928 329.561 109.136 330.457 111.376C331.353 113.616 332.249 115.76 333.145 117.808C333.017 117.488 333.465 118.544 334.489 120.976C335.129 119.12 335.865 116.848 336.697 114.16L339.673 105.328Z" fill="#3771C8"/>
<path d="M369.038 71.92C371.406 78.96 374.094 86.704 377.102 95.152C380.11 103.536 382.862 110.8 385.358 116.944C387.214 110.992 389.774 103.856 393.038 95.536C396.302 87.152 399.342 79.6 402.158 72.88C402.99 70.896 404.398 69.904 406.382 69.904C408.238 69.904 409.646 70.288 410.606 71.056C411.566 71.76 412.046 73.008 412.046 74.8C412.046 75.504 411.95 76.112 411.758 76.624C411.566 77.136 411.278 77.808 410.894 78.64C408.91 82.544 406.926 87.056 404.942 92.176C402.958 97.232 400.526 103.664 397.646 111.472C397.774 111.152 396.878 113.552 394.958 118.672L391.79 126.928C391.406 127.952 390.766 128.752 389.87 129.328C389.038 129.84 388.078 130.096 386.99 130.096C385.902 130.096 384.686 129.84 383.342 129.328C382.062 128.752 381.134 128.176 380.558 127.6C378.382 123.44 375.598 117.424 372.206 109.552C368.878 101.68 365.998 94.416 363.566 87.76L362.126 83.824C361.166 81.136 360.462 79.088 360.014 77.68C359.566 76.208 359.342 75.024 359.342 74.128C359.342 72.848 360.046 71.824 361.454 71.056C362.926 70.288 364.334 69.904 365.678 69.904C366.382 69.904 367.054 70.064 367.694 70.384C368.334 70.704 368.782 71.216 369.038 71.92ZM417.409 108.016C417.409 104.112 418.273 100.88 420.001 98.32C421.729 95.696 424.129 93.232 427.201 90.928C428.097 90.288 429.601 89.744 431.713 89.296C433.825 88.784 435.681 88.528 437.281 88.528C439.201 88.528 441.217 88.944 443.329 89.776C445.505 90.544 447.265 91.44 448.609 92.464C450.977 94.192 452.609 96.208 453.505 98.512C454.401 100.752 454.849 103.44 454.849 106.576C454.849 107.92 454.081 109.232 452.545 110.512C451.073 111.728 449.473 112.336 447.745 112.336L444.097 112.24C442.241 112.24 439.585 112.304 436.129 112.432L434.113 112.528C432.705 112.656 431.649 112.72 430.945 112.72C429.921 112.72 428.513 112.592 426.721 112.336C426.977 115.344 428.097 117.712 430.081 119.44C432.065 121.104 434.209 121.936 436.513 121.936C440.545 121.936 443.361 121.136 444.961 119.536C446.305 118.576 447.201 117.968 447.649 117.712C448.097 117.456 448.801 117.328 449.761 117.328C450.785 117.328 451.681 117.808 452.449 118.768C453.217 119.728 453.601 120.688 453.601 121.648C453.601 122.736 452.929 123.856 451.585 125.008C450.305 126.096 448.545 127.248 446.305 128.464C445.089 128.976 443.425 129.424 441.313 129.808C439.201 130.192 437.441 130.384 436.033 130.384C433.793 130.384 431.297 129.744 428.545 128.464C425.793 127.12 423.745 125.648 422.401 124.048C421.057 122.448 419.873 120.176 418.849 117.232C417.889 114.288 417.409 111.216 417.409 108.016ZM436.513 105.424C441.057 105.424 444.385 105.264 446.497 104.944C446.369 103.088 445.793 101.584 444.769 100.432C443.745 99.216 442.337 98.192 440.545 97.36C439.969 97.104 439.457 96.912 439.009 96.784C438.561 96.656 438.049 96.592 437.473 96.592C434.529 96.592 432.033 97.392 429.985 98.992C428.001 100.592 426.817 102.64 426.433 105.136C429.633 105.328 432.993 105.424 436.513 105.424ZM464.316 96.304C462.652 95.152 461.82 93.936 461.82 92.656C461.82 91.76 462.204 90.928 462.972 90.16C463.74 89.392 464.892 89.008 466.428 89.008C468.22 89.008 469.82 89.488 471.228 90.448C472.7 91.344 473.724 92.656 474.3 94.384C475.772 92.656 477.436 91.28 479.292 90.256C481.212 89.232 483.164 88.72 485.148 88.72C487.516 88.72 489.66 89.36 491.58 90.64C493.5 91.92 494.46 93.648 494.46 95.824C494.46 97.04 493.916 98.288 492.828 99.568C491.804 100.848 490.748 101.488 489.66 101.488C489.084 101.488 488.572 101.36 488.124 101.104C487.74 100.784 487.26 100.336 486.684 99.76C486.044 99.12 485.5 98.672 485.052 98.416C484.604 98.096 484.092 97.936 483.516 97.936C482.492 97.936 481.532 98.096 480.636 98.416C479.74 98.736 479.132 99.12 478.812 99.568C477.788 101.168 477.02 102.608 476.508 103.888C476.06 105.168 475.836 106.544 475.836 108.016C475.836 109.104 475.804 109.968 475.74 110.608L475.644 116.08C475.644 116.912 475.676 117.84 475.74 118.864C475.804 119.888 475.868 120.656 475.932 121.168C476.124 122.896 476.22 124.56 476.22 126.16C476.22 127.248 475.804 128.208 474.972 129.04C474.14 129.872 473.116 130.288 471.9 130.288C469.98 130.288 468.572 129.936 467.676 129.232C466.78 128.464 466.332 127.088 466.332 125.104L466.236 118.96C466.172 117.744 466.14 116.016 466.14 113.776L466.236 107.44C466.364 104.368 466.428 101.872 466.428 99.952C466.428 99.248 466.268 98.608 465.948 98.032C465.692 97.456 465.148 96.88 464.316 96.304ZM527.383 108.016C529.943 109.488 531.735 110.96 532.759 112.432C533.783 113.84 534.295 115.696 534.295 118C534.295 120.304 533.623 122.352 532.279 124.144C530.935 125.872 529.207 127.216 527.095 128.176C525.559 128.88 523.639 129.424 521.335 129.808C519.095 130.192 517.335 130.384 516.055 130.384C513.815 130.384 511.383 129.968 508.759 129.136C506.135 128.304 503.895 127.12 502.039 125.584C500.247 124.048 499.351 122.256 499.351 120.208C499.351 118.928 499.767 117.936 500.599 117.232C501.431 116.464 502.519 116.08 503.863 116.08C504.951 116.08 506.103 116.848 507.319 118.384C508.535 119.728 509.943 120.752 511.543 121.456C513.207 122.16 514.839 122.512 516.439 122.512C522.519 122.512 525.559 121.136 525.559 118.384C525.559 117.808 525.367 117.264 524.983 116.752C524.599 116.176 524.247 115.792 523.927 115.6C523.351 115.152 522.551 114.768 521.527 114.448C520.503 114.128 519.479 113.872 518.455 113.68C517.431 113.424 516.663 113.232 516.151 113.104C515.639 112.976 514.551 112.752 512.887 112.432C511.287 112.112 509.751 111.568 508.279 110.8C505.847 109.648 503.863 108.24 502.327 106.576C500.855 104.912 500.119 102.768 500.119 100.144C500.119 98.672 500.471 97.2 501.175 95.728C501.943 94.192 502.967 93.04 504.247 92.272C506.167 91.056 508.279 90.128 510.583 89.488C512.887 88.848 515.031 88.528 517.015 88.528C518.615 88.528 520.407 88.688 522.391 89.008C524.439 89.328 525.911 89.776 526.807 90.352C528.471 91.248 529.687 92.176 530.455 93.136C531.223 94.096 531.607 95.312 531.607 96.784C531.607 97.488 531.447 98.192 531.127 98.896C530.807 99.536 530.423 99.984 529.975 100.24C528.951 100.624 528.055 100.816 527.287 100.816C526.711 100.816 526.231 100.72 525.847 100.528C525.463 100.272 525.111 100.016 524.791 99.76C524.535 99.504 524.375 99.344 524.311 99.28C523.479 98.384 522.551 97.68 521.527 97.168C520.503 96.656 518.999 96.4 517.015 96.4C515.735 96.4 514.487 96.592 513.271 96.976C512.119 97.296 511.223 97.712 510.583 98.224C510.071 98.608 509.719 98.96 509.527 99.28C509.335 99.536 509.239 99.888 509.239 100.336C509.239 102.128 511.031 103.44 514.615 104.272C518.263 105.104 520.183 105.552 520.375 105.616C520.759 105.744 521.815 106.064 523.543 106.576C525.335 107.088 526.615 107.568 527.383 108.016ZM542.57 108.304C542.57 106 542.986 103.856 543.818 101.872C544.65 99.824 545.866 97.712 547.466 95.536C549.066 93.36 551.274 91.664 554.09 90.448C556.906 89.168 559.978 88.528 563.306 88.528C565.866 88.528 568.33 89.072 570.698 90.16C573.13 91.184 575.306 92.464 577.226 94C577.482 94.448 577.93 95.28 578.57 96.496C579.21 97.648 579.658 98.704 579.914 99.664C580.234 100.624 580.394 101.616 580.394 102.64C580.394 106.928 578.826 109.808 575.69 111.28C572.554 112.688 568.586 113.392 563.786 113.392C558.986 113.392 555.082 113.072 552.074 112.432C552.202 113.648 552.522 114.864 553.034 116.08C553.546 117.296 554.154 118.224 554.858 118.864C556.138 120.08 557.386 120.88 558.602 121.264C559.882 121.584 561.578 121.744 563.69 121.744C566.89 121.744 569.386 121.136 571.178 119.92C572.842 118.832 574.122 118.288 575.018 118.288C576.234 118.288 577.162 118.672 577.802 119.44C578.442 120.144 578.762 121.072 578.762 122.224C578.762 124.656 577.194 126.64 574.058 128.176C570.986 129.712 567.498 130.48 563.594 130.48C560.522 130.48 557.482 129.936 554.474 128.848C551.466 127.76 549.066 126.224 547.274 124.24C546.058 122.192 544.97 119.696 544.01 116.752C543.05 113.808 542.57 110.992 542.57 108.304ZM563.69 96.4C562.282 96.4 560.81 96.656 559.274 97.168C557.802 97.616 556.65 98.32 555.818 99.28C554.794 100.368 554.026 101.36 553.514 102.256C553.066 103.152 552.778 104.272 552.65 105.616C553.354 105.616 554.026 105.648 554.666 105.712C555.306 105.776 555.914 105.84 556.49 105.904C559.306 106.16 561.418 106.288 562.826 106.288C565.642 106.288 567.786 105.872 569.258 105.04C570.794 104.208 571.562 103.088 571.562 101.68C571.562 100.336 570.698 99.12 568.97 98.032C567.306 96.944 565.546 96.4 563.69 96.4Z" fill="white"/>
<path d="M65.8308 64.671C84.671 54.4922 103.93 52.7787 122.999 62.1876C146.504 73.7852 158.796 93.387 157.657 119.627C156.5 146.252 142.35 164.568 117.269 174.715C99.9956 180.217 83.4491 179.379 67.7872 170.615C26.3057 147.402 25.1838 90.0251 65.8308 64.671ZM131.502 140.703C129.057 144.34 125.664 145.825 121.588 144.129C117.52 142.435 116.422 139.039 116.851 134.673C117.024 132.914 116.007 130.54 114.732 129.217C106.754 120.94 98.5502 112.881 90.421 104.75C82.0561 96.3833 73.7206 87.9868 65.287 79.69C64.2782 78.6976 62.7351 78.2483 61.4397 77.5472C60.806 78.3904 60.1723 79.2336 59.5386 80.0768C61.2174 81.1818 62.9314 82.2373 64.5685 83.4009C69.8957 87.1874 72.0735 92.2095 71.3469 98.8355C71.1359 100.76 72.4289 103.327 73.8366 104.863C78.5613 110.017 83.6253 114.862 88.6064 119.778C91.8076 122.938 94.2943 126.625 100.233 125.394C104.661 124.476 107.939 129.406 107.285 134.182C106.693 138.506 101.658 141.978 97.2216 141.122C93.882 140.477 90.8139 134.901 91.2747 131.37C91.5059 129.598 91.0405 127.111 89.8903 125.887C83.6166 119.213 76.9265 112.931 70.6352 106.273C69.2208 104.776 67.8069 102.13 68.1336 100.329C69.7938 91.1748 63.585 86.9674 57.6976 81.9623C56.3719 83.3559 55.2717 84.5124 54.1715 85.6689C54.6371 85.6702 55.1027 85.6716 55.5683 85.6729C56.2899 88.8752 57.2347 92.0481 57.663 95.2892C58.0092 97.9096 57.7307 100.612 57.7337 103.278C57.7439 112.222 64.3155 118.973 73.2555 119.225C78.1403 119.363 81.2907 122.727 81.002 127.496C80.7378 131.86 76.6668 135.462 72.2429 135.247C68.6424 135.072 63.9746 129.705 65.1285 126.022C67.2074 119.387 61.6276 118.45 58.6081 114.652C55.9101 127.414 63.668 137.575 75.607 138.231C80.1444 138.48 83.3072 142.004 82.9959 146.463C82.7122 150.527 78.9593 153.948 74.9953 153.756C70.6392 153.544 66.5315 149.682 67.5895 145.494C68.6984 141.105 66.64 138.883 63.943 136.688C57.5833 131.513 53.0279 125.678 54.8587 116.747C56.3377 109.531 51.2178 106.17 46.1871 102.196C45.6762 104.163 45.2183 105.584 44.9429 107.038C38.3144 142.05 66.7826 173.714 102.181 170.056C118.055 168.416 131.247 161.082 140.786 146.945C153.59 127.272 153.04 103.331 139.372 85.2871C127.895 70.1353 106.115 60.826 91.7123 65.2075C95.8175 68.5209 97.6909 74.5083 105.019 72.503C108.722 71.4894 112.694 76.139 112.696 80.0155C112.699 84.0844 109.295 87.8181 105.287 88.1431C101.245 88.4709 96.2607 84.9744 97.1342 81.2287C98.8686 73.7912 93.3229 71.0416 89.5667 67.0645C88.6797 66.1253 86.8029 65.1775 85.7576 65.4903C80.5136 67.0597 75.3945 69.0463 69.2385 71.2402C74.9664 76.8673 79.3966 81.6362 84.3074 85.8442C86.3443 87.5896 89.4811 89.1891 91.9913 89.0165C97.8927 88.6107 102.286 90.4053 105.811 95.0105C107.347 97.0171 109.006 98.1691 112.123 97.4794C117.343 96.3241 121.647 100.151 121.623 105.071C121.602 109.212 117.625 113.14 113.561 113.032C108.589 112.899 105.476 108.713 105.947 103.353C106.096 101.66 105.636 99.5502 104.669 98.1905C101.516 93.7579 97.3553 91.0925 91.5281 92.1671C87.932 92.8303 85.2492 91.3714 82.7804 88.6684C78.6294 84.1236 74.1784 79.8457 69.7257 75.5894C68.7654 74.6714 67.262 74.3216 66.0088 73.7101C65.6072 75.3276 65.7323 75.8525 66.0572 76.1782C83.3448 93.5092 100.636 110.837 117.993 128.098C118.814 128.914 120.253 129.579 121.381 129.545C130.674 129.258 132.75 131.281 131.502 140.703ZM77.8096 129.523C79.1054 124.507 76.4917 120.665 72.4509 122.005C70.8797 122.527 69.0126 124.399 68.7276 125.926C68.4396 127.469 69.6029 130.484 70.7392 130.825C72.7008 131.413 75.1335 130.432 77.8096 129.523ZM122.167 132.407C121.456 134.681 120.146 136.996 120.296 139.213C120.367 140.267 123.373 142.074 124.772 141.844C126.481 141.563 128.597 139.801 129.299 138.152C130.82 134.583 128.07 132.189 122.167 132.407ZM70.255 145.051C70.3545 149.035 72.2807 151.484 76.3667 150.844C79.7279 150.316 80.9727 147.541 79.9383 144.473C79.4605 143.056 77.3835 141.008 76.3702 141.185C74.2832 141.55 72.4239 143.217 70.255 145.051ZM102.48 128.81C100.242 129.058 97.7508 128.808 95.874 129.764C94.9427 130.239 94.5037 133.131 94.9596 134.578C95.9462 137.708 98.6671 139.002 101.618 137.466C105.221 135.59 105.677 132.585 102.48 128.81ZM52.0634 89.2171C46.0982 97.6207 46.6897 101.173 54.9279 104.523C54.9279 100.922 55.164 97.4327 54.8286 93.9993C54.6601 92.2745 53.4523 90.6512 52.0634 89.2171ZM108.138 76.4086C104.735 74.2038 101.619 74.5126 100.187 78.4441C99.6291 79.9747 100.492 82.9448 101.753 83.9537C102.988 84.9421 105.954 84.9975 107.446 84.1716C110.293 82.5953 110.578 79.7818 108.138 76.4086ZM108.836 106.446C110.256 110.007 112.942 111.509 116.139 109.359C117.585 108.387 118.657 105.39 118.29 103.652C117.989 102.224 115.392 100.502 113.664 100.321C110.298 99.9684 108.75 102.348 108.836 106.446Z" fill="#F8F9FC"/>
<path d="M140.231 147.314C131.247 161.083 118.055 168.417 102.181 170.057C66.7826 173.714 38.3143 142.051 44.9429 107.039C45.2183 105.584 45.6762 104.164 46.1871 102.196C51.2177 106.171 56.3377 109.532 54.8586 116.747C53.0279 125.678 57.5832 131.514 63.9429 136.689C66.64 138.884 68.6983 141.106 67.5895 145.495C66.5315 149.683 70.6392 153.545 74.9953 153.756C78.9593 153.949 82.7121 150.528 82.9959 146.464C83.3072 142.005 80.1443 138.481 75.607 138.232C63.668 137.575 55.9101 127.415 58.6081 114.652C61.6275 118.451 67.2074 119.387 65.1284 126.023C63.9745 129.705 68.6423 135.073 72.2429 135.248C76.6667 135.463 80.7377 131.861 81.0019 127.497C81.2907 122.727 78.1402 119.363 73.2555 119.226C64.3155 118.973 57.7439 112.223 57.7337 103.279C57.7306 100.613 58.0092 97.9103 57.6629 95.2899C57.2347 92.0488 56.2899 88.8759 55.5682 85.6736C55.1027 85.6722 54.6371 85.6709 54.1715 85.6695C55.2717 84.5131 56.3718 83.3566 57.6976 81.963C63.585 86.9681 69.7938 91.1754 68.1335 100.33C67.8069 102.131 69.2208 104.776 70.6352 106.273C76.9264 112.932 83.6166 119.214 89.8902 125.888C91.0404 127.112 91.5058 129.599 91.2747 131.37C90.8139 134.902 93.882 140.478 97.2216 141.122C101.658 141.979 106.693 138.507 107.285 134.183C107.939 129.406 104.661 124.477 100.233 125.395C94.2942 126.626 91.8076 122.938 88.6064 119.779C83.6253 114.863 78.5613 110.018 73.8365 104.864C72.4289 103.328 71.1358 100.76 71.3468 98.8362C72.0735 92.2102 69.8956 87.1881 64.5685 83.4016C62.9314 82.2379 61.2174 81.1825 59.5386 80.0775C60.1723 79.2343 60.806 78.3911 61.4397 77.5479C62.7351 78.2489 64.2782 78.6983 65.287 79.6907C73.7206 87.9875 82.0561 96.384 90.4209 104.751C98.5502 112.882 106.754 120.941 114.732 129.217C116.007 130.541 117.024 132.914 116.851 134.674C116.422 139.04 117.52 142.436 121.588 144.129C125.664 145.826 129.057 144.341 132.06 140.626C135.155 142.804 137.693 145.059 140.231 147.314Z" fill="#7393BF"/>
<path d="M140.509 147.129C137.693 145.058 135.155 142.803 132.318 140.401C132.75 131.28 130.674 129.258 121.381 129.544C120.254 129.579 118.815 128.914 117.993 128.098C100.636 110.837 83.3448 93.5091 66.0573 76.1781C65.7324 75.8524 65.6073 75.3274 66.0088 73.71C67.2621 74.3215 68.7655 74.6713 69.7258 75.5892C74.1785 79.8456 78.6294 84.1235 82.7804 88.6683C85.2492 91.3713 87.9321 92.8302 91.5282 92.167C97.3554 91.0924 101.516 93.7578 104.669 98.1903C105.636 99.5501 106.096 101.66 105.947 103.352C105.476 108.713 108.589 112.899 113.561 113.031C117.625 113.139 121.602 109.212 121.623 105.071C121.647 100.151 117.343 96.324 112.123 97.4793C109.006 98.169 107.347 97.017 105.811 95.0104C102.286 90.4052 97.8928 88.6106 91.9913 89.0164C89.4812 89.189 86.3444 87.5895 84.3075 85.8441C79.3967 81.636 74.9664 76.8672 69.2386 71.2401C75.3945 69.0462 80.5136 67.0595 85.7576 65.4902C86.803 65.1773 88.6797 66.1252 89.5668 67.0644C93.323 71.0415 98.8687 73.7911 97.1343 81.2285C96.2608 84.9743 101.245 88.4708 105.287 88.143C109.295 87.818 112.699 84.0842 112.696 80.0154C112.694 76.1389 108.722 71.4893 105.019 72.5029C97.691 74.5082 95.8176 68.5208 91.7124 65.2074C106.115 60.8258 127.895 70.1352 139.372 85.287C153.04 103.331 153.59 127.272 140.509 147.129Z" fill="#7796C1"/>
<path d="M77.589 129.816C75.1335 130.432 72.7007 131.414 70.7392 130.825C69.6029 130.484 68.4396 127.47 68.7275 125.927C69.0126 124.4 70.8796 122.527 72.4508 122.006C76.4916 120.665 79.1054 124.507 77.589 129.816Z" fill="#7F9CC5"/>
<path d="M122.542 132.277C128.07 132.189 130.82 134.583 129.299 138.152C128.597 139.801 126.481 141.563 124.772 141.844C123.373 142.074 120.367 140.267 120.296 139.213C120.146 136.996 121.456 134.681 122.542 132.277Z" fill="#7F9CC5"/>
<path d="M70.3628 144.7C72.4238 143.218 74.2831 141.55 76.3701 141.186C77.3834 141.009 79.4604 143.056 79.9382 144.473C80.9726 147.541 79.7278 150.317 76.3666 150.844C72.2806 151.485 70.3544 149.036 70.3628 144.7Z" fill="#7E9BC4"/>
<path d="M102.781 129.06C105.677 132.586 105.221 135.59 101.618 137.466C98.6671 139.003 95.9461 137.708 94.9596 134.578C94.5037 133.132 94.9426 130.239 95.874 129.764C97.7507 128.808 100.242 129.058 102.781 129.06Z" fill="#7E9BC5"/>
<path d="M52.389 89.0996C53.4523 90.6513 54.6601 92.2746 54.8286 93.9994C55.1641 97.4327 54.9279 100.922 54.9279 104.523C46.6897 101.173 46.0982 97.6208 52.389 89.0996Z" fill="#7E9BC4"/>
<path d="M108.407 76.6928C110.578 79.7821 110.293 82.5957 107.446 84.1719C105.954 84.9978 102.988 84.9425 101.752 83.954C100.492 82.9451 99.629 79.9751 100.186 78.4444C101.619 74.5129 104.735 74.2042 108.407 76.6928Z" fill="#7B99C3"/>
<path d="M108.767 106.043C108.75 102.348 110.298 99.9689 113.664 100.322C115.392 100.503 117.989 102.225 118.29 103.652C118.657 105.391 117.585 108.388 116.139 109.36C112.942 111.509 110.256 110.007 108.767 106.043Z" fill="#7B99C3"/>
</svg>
