<svg width="672" height="125" viewBox="0 0 672 125" fill="none" xmlns="http://www.w3.org/2000/svg">
<path d="M8.5837 37.1528C-3.05603 25.331 -2.51983 25.8071 8.1442 13.7216C17.1986 3.46044 27.4721 -0.404194 41.0582 0.0330632C67.2926 0.877358 93.5739 0.156368 119.835 0.311817C141.882 0.442235 157.938 12.1377 162.756 31.8894C166.218 46.0807 162.978 59.0983 152.788 69.6279C135.72 87.2672 118.176 104.444 100.971 121.952C97.788 125.191 95.5375 124.467 92.7898 121.641C86.6781 115.355 80.0936 109.498 74.3507 102.899C69.9544 97.8463 67.06 98.5552 62.9507 103.136C56.9586 109.816 50.3497 115.939 44.0051 122.301C42.4413 123.869 40.6532 125.994 38.4877 123.836C28.6257 114.009 17.39 105.28 14.4156 90.2694C12.0792 78.4788 14.7254 68.0609 21.281 58.4643C25.3797 52.4639 31.0482 47.8251 36.1866 42.7455C36.9354 42.0053 37.9988 41.1138 38.9274 41.1012C47.982 40.978 57.0388 41.027 67.027 41.027C64.6403 45.9449 61.2107 48.3958 58.4037 51.3086C52.625 57.3052 46.5828 63.0481 40.8555 69.0924C33.5876 76.7626 33.4973 86.0578 40.9745 94.3646C47.57 87.7067 54.1541 81.07 60.7273 74.4223C69.665 65.3835 78.8014 56.5296 87.4403 47.2119C91.7963 42.5137 96.3688 40.1385 102.892 40.6798C109.346 41.2154 115.878 40.7969 122.143 40.7969C123.051 43.8543 121.219 44.7313 120.052 45.9046C110.47 55.5379 100.869 65.1519 91.2596 74.758C84.0711 81.9441 84.0622 81.9347 91.4635 89.2829C91.9301 89.7461 92.4302 90.1828 92.8469 90.6882C95.3297 93.6996 97.7023 93.7299 100.5 90.8917C112.499 78.7201 124.704 66.7523 136.614 54.4943C142.102 48.8452 143.788 41.9083 140.612 34.4708C137.255 26.6139 130.93 22.7836 122.467 22.76C99.4885 22.6962 76.5097 22.7347 53.5309 22.733C52.2178 22.7329 50.8637 22.9504 49.598 22.7055C35.9069 20.057 25.4094 24.9401 17.283 36.0145C15.209 38.841 12.5245 41.7808 8.5837 37.1528Z" fill="url(#paint0_linear_661_2)"/>
<path d="M183 99.6046V23H212.456C220.944 23 228.029 24.7263 233.711 28.1789C239.466 31.5596 243.782 36.163 246.659 41.9893C249.608 47.7436 251.083 54.1453 251.083 61.1944C251.083 68.9628 249.464 75.7241 246.227 81.4784C243.063 87.2328 238.567 91.6924 232.74 94.8573C226.986 98.0222 220.224 99.6046 212.456 99.6046H183ZM229.719 61.1944C229.719 57.2383 229.036 53.7857 227.669 50.8366C226.303 47.8156 224.324 45.4779 221.735 43.8235C219.145 42.1691 216.052 41.3419 212.456 41.3419H204.04V81.2627H212.456C216.124 81.2627 219.217 80.3995 221.735 78.6732C224.324 76.9469 226.303 74.5732 227.669 71.5522C229.036 68.4593 229.719 65.0067 229.719 61.1944ZM286.778 100.684C281.814 100.684 277.391 99.9283 273.506 98.4178C269.622 96.8353 266.349 94.7134 263.688 92.052C261.098 89.3907 259.12 86.3337 257.753 82.8811C256.387 79.4285 255.703 75.796 255.703 71.9838C255.703 66.5172 256.89 61.5181 259.264 56.9865C261.638 52.3831 265.126 48.7147 269.73 45.9814C274.333 43.1761 280.016 41.7735 286.778 41.7735C293.539 41.7735 299.222 43.1402 303.825 45.8735C308.429 48.6068 311.917 52.2033 314.291 56.6629C316.665 61.1225 317.852 65.9777 317.852 71.2285C317.852 72.3075 317.78 73.4224 317.636 74.5732C317.564 75.6522 317.456 76.6232 317.312 77.4864H277.498C277.642 79.5004 278.182 81.1548 279.117 82.4495C280.124 83.6723 281.347 84.5714 282.785 85.1468C284.296 85.7223 285.842 86.01 287.425 86.01C289.655 86.01 291.741 85.5065 293.683 84.4995C295.697 83.4925 297.028 82.0898 297.675 80.2916L315.046 85.2547C313.536 88.2757 311.414 90.9371 308.681 93.2389C306.019 95.5406 302.854 97.3748 299.186 98.7414C295.517 100.036 291.381 100.684 286.778 100.684ZM277.067 65.1865H295.841C295.625 63.3163 295.086 61.7339 294.222 60.4391C293.431 59.1444 292.352 58.1374 290.986 57.4181C289.691 56.6988 288.18 56.3392 286.454 56.3392C284.728 56.3392 283.181 56.6988 281.814 57.4181C280.52 58.1374 279.441 59.1444 278.577 60.4391C277.786 61.7339 277.283 63.3163 277.067 65.1865ZM336.817 99.6046L317.719 42.8525H338.759L348.901 81.3705L359.152 42.8525H378.249L359.152 99.6046H336.817Z" fill="url(#paint1_linear_661_2)"/>
<path d="M409.937 23H429.251L436.264 46.6287L443.385 23H462.699L449.751 59.576L455.254 75.2206L471.762 23H494.636L465.72 99.6046H447.486L436.264 72.1996L425.151 99.6046H406.916L378 23H400.766L417.382 75.2206L422.669 59.576L409.937 23ZM488.61 82.4495C488.61 78.6372 489.653 75.2925 491.739 72.4154C493.825 69.4663 496.702 67.1645 500.371 65.5102C504.111 63.8558 508.355 63.0286 513.102 63.0286C515.332 63.0286 517.418 63.2084 519.36 63.5681C521.375 63.9277 523.101 64.4672 524.539 65.1865V63.4602C524.539 60.7988 523.748 58.8207 522.166 57.526C520.655 56.2313 518.174 55.5839 514.721 55.5839C511.556 55.5839 508.571 56.1234 505.765 57.2023C503.032 58.2093 500.155 59.7199 497.134 61.7339L491.199 49.0024C495.012 46.5568 499.004 44.7586 503.176 43.6077C507.42 42.3849 511.952 41.7735 516.771 41.7735C525.762 41.7735 532.704 43.8235 537.595 47.9235C542.558 51.9515 545.04 57.9576 545.04 65.9417V76.9469C545.04 78.889 545.328 80.2556 545.903 81.0469C546.479 81.7662 547.486 82.1977 548.924 82.3416V99.6046C547.27 99.9642 545.687 100.216 544.177 100.36C542.738 100.576 541.443 100.684 540.292 100.684C536.624 100.684 533.819 100.036 531.876 98.7414C530.006 97.3748 528.783 95.3967 528.208 92.8073L527.776 90.7573C525.259 93.9941 522.346 96.4757 519.037 98.202C515.728 99.8564 512.203 100.684 508.463 100.684C504.722 100.684 501.342 99.8923 498.321 98.3099C495.3 96.7274 492.926 94.5696 491.199 91.8362C489.473 89.031 488.61 85.9021 488.61 82.4495ZM521.842 83.8521C522.633 83.2767 523.281 82.6653 523.784 82.0179C524.288 81.2986 524.539 80.5793 524.539 79.86V75.6522C523.389 75.2206 522.058 74.8609 520.547 74.5732C519.109 74.2855 517.814 74.1417 516.663 74.1417C514.217 74.1417 512.131 74.7531 510.405 75.9759C508.751 77.1986 507.923 78.7451 507.923 80.6153C507.923 81.6223 508.211 82.5574 508.787 83.4205C509.362 84.2117 510.153 84.8591 511.16 85.3626C512.167 85.7942 513.318 86.01 514.613 86.01C515.836 86.01 517.095 85.8302 518.389 85.4705C519.756 85.0389 520.907 84.4995 521.842 83.8521ZM568.038 99.6046L548.94 42.8525H569.98L580.122 81.3705L590.372 42.8525H609.47L590.372 99.6046H568.038ZM640.857 100.684C635.893 100.684 631.47 99.9283 627.585 98.4178C623.701 96.8353 620.428 94.7134 617.767 92.052C615.177 89.3906 613.199 86.3337 611.832 82.8811C610.466 79.4285 609.782 75.796 609.782 71.9838C609.782 66.5172 610.969 61.5181 613.343 56.9865C615.717 52.3831 619.205 48.7147 623.809 45.9814C628.413 43.1761 634.095 41.7735 640.857 41.7735C647.618 41.7735 653.301 43.1402 657.904 45.8735C662.508 48.6068 665.997 52.2033 668.37 56.6629C670.744 61.1225 671.931 65.9777 671.931 71.2285C671.931 72.3075 671.859 73.4224 671.715 74.5732C671.643 75.6522 671.535 76.6232 671.391 77.4864H631.578C631.721 79.5004 632.261 81.1548 633.196 82.4495C634.203 83.6723 635.426 84.5714 636.864 85.1468C638.375 85.7223 639.922 86.01 641.504 86.01C643.734 86.01 645.82 85.5065 647.762 84.4995C649.776 83.4925 651.107 82.0898 651.754 80.2916L669.126 85.2547C667.615 88.2758 665.493 90.9371 662.76 93.2389C660.098 95.5406 656.933 97.3748 653.265 98.7414C649.596 100.036 645.46 100.684 640.857 100.684ZM631.146 65.1865H649.92C649.704 63.3163 649.165 61.7339 648.302 60.4391C647.51 59.1444 646.431 58.1374 645.065 57.4181C643.77 56.6988 642.259 56.3392 640.533 56.3392C638.807 56.3392 637.26 56.6988 635.893 57.4181C634.599 58.1374 633.52 59.1444 632.657 60.4391C631.865 61.7339 631.362 63.3163 631.146 65.1865Z" fill="white"/>
<defs>
<linearGradient id="paint0_linear_661_2" x1="1.68103e-06" y1="61.9159" x2="174.666" y2="56.0245" gradientUnits="userSpaceOnUse">
<stop offset="0.0409998" stop-color="#4300FF"/>
<stop offset="1" stop-color="#18005B"/>
</linearGradient>
<linearGradient id="paint1_linear_661_2" x1="176.418" y1="61.9542" x2="378.725" y2="61.3924" gradientUnits="userSpaceOnUse">
<stop stop-color="#4300FF"/>
<stop offset="1" stop-color="#210474"/>
</linearGradient>
</defs>
</svg>
