<svg width="581" height="113" viewBox="0 0 581 113" fill="none" xmlns="http://www.w3.org/2000/svg">
<path d="M6.53613 38.2025C-2.32704 29.2286 -1.91875 29.59 6.20147 20.416C13.096 12.6268 20.9189 9.69318 31.2641 10.0251C51.2405 10.666 71.2527 10.1187 91.2491 10.2367C108.037 10.3357 120.263 19.2137 123.932 34.2071C126.568 44.9796 124.101 54.8612 116.342 62.8542C103.345 76.2441 89.9865 89.2829 76.8853 102.573C74.4615 105.032 72.7479 104.482 70.6556 102.337C66.0018 97.5657 60.988 93.1196 56.615 88.1098C53.2674 84.2746 51.0634 84.8127 47.9344 88.29C43.3716 93.3607 38.3392 98.0088 33.5081 102.838C32.3173 104.028 30.9557 105.641 29.3068 104.003C21.7973 96.544 13.2418 89.9175 10.9769 78.523C9.19779 69.5728 11.2128 61.6647 16.2046 54.3799C19.3256 49.8251 23.6419 46.3038 27.5546 42.4479C28.1248 41.886 28.9345 41.2093 29.6416 41.1997C36.5363 41.1062 43.4327 41.1434 51.0383 41.1434C49.2209 44.8765 46.6094 46.737 44.472 48.9481C40.0718 53.5001 35.4709 57.8595 31.1098 62.4477C25.5756 68.2701 25.5068 75.326 31.2004 81.6317C36.2226 76.5777 41.2361 71.5398 46.2413 66.4936C53.047 59.6323 60.004 52.9113 66.5822 45.8383C69.8991 42.2719 73.3809 40.4689 78.3482 40.8798C83.2623 41.2864 88.2364 40.9687 93.0065 40.9687C93.6986 43.2896 92.3029 43.9553 91.4143 44.8459C84.1181 52.1585 76.8073 59.4565 69.4904 66.7484C64.0167 72.2033 64.0099 72.1962 69.6457 77.7742C70.001 78.1258 70.3818 78.4573 70.6991 78.8409C72.5896 81.1269 74.3963 81.1499 76.5268 78.9954C85.6632 69.756 94.9573 60.6713 104.026 51.3663C108.205 47.0781 109.489 41.8124 107.07 36.1666C104.514 30.2025 99.698 27.2949 93.2536 27.277C75.7564 27.2286 58.259 27.2578 40.7616 27.2565C39.7617 27.2564 38.7306 27.4215 37.7668 27.2356C27.3416 25.2252 19.3482 28.9319 13.1603 37.3384C11.581 39.484 9.53686 41.7156 6.53613 38.2025Z" fill="url(#paint0_linear_658_10)"/>
<path d="M145.856 90V21.84H172.064C179.616 21.84 185.92 23.376 190.976 26.448C196.096 29.456 199.936 33.552 202.496 38.736C205.12 43.856 206.432 49.552 206.432 55.824C206.432 62.736 204.992 68.752 202.112 73.872C199.296 78.992 195.296 82.96 190.112 85.776C184.992 88.592 178.976 90 172.064 90H145.856ZM187.424 55.824C187.424 52.304 186.816 49.232 185.6 46.608C184.384 43.92 182.624 41.84 180.32 40.368C178.016 38.896 175.264 38.16 172.064 38.16H164.576V73.68H172.064C175.328 73.68 178.08 72.912 180.32 71.376C182.624 69.84 184.384 67.728 185.6 65.04C186.816 62.288 187.424 59.216 187.424 55.824ZM238.191 90.96C233.775 90.96 229.839 90.288 226.383 88.944C222.927 87.536 220.015 85.648 217.647 83.28C215.343 80.912 213.583 78.192 212.367 75.12C211.151 72.048 210.543 68.816 210.543 65.424C210.543 60.56 211.599 56.112 213.711 52.08C215.823 47.984 218.927 44.72 223.023 42.288C227.119 39.792 232.175 38.544 238.191 38.544C244.207 38.544 249.263 39.76 253.359 42.192C257.455 44.624 260.559 47.824 262.671 51.792C264.783 55.76 265.839 60.08 265.839 64.752C265.839 65.712 265.775 66.704 265.647 67.728C265.583 68.688 265.487 69.552 265.359 70.32H229.935C230.063 72.112 230.543 73.584 231.375 74.736C232.271 75.824 233.359 76.624 234.639 77.136C235.983 77.648 237.359 77.904 238.767 77.904C240.751 77.904 242.607 77.456 244.335 76.56C246.127 75.664 247.311 74.416 247.887 72.816L263.343 77.232C261.999 79.92 260.111 82.288 257.679 84.336C255.311 86.384 252.495 88.016 249.231 89.232C245.967 90.384 242.287 90.96 238.191 90.96ZM229.551 59.376H246.255C246.063 57.712 245.583 56.304 244.815 55.152C244.111 54 243.151 53.104 241.935 52.464C240.783 51.824 239.439 51.504 237.903 51.504C236.367 51.504 234.991 51.824 233.775 52.464C232.623 53.104 231.663 54 230.895 55.152C230.191 56.304 229.743 57.712 229.551 59.376ZM282.713 90L265.721 39.504H284.441L293.465 73.776L302.585 39.504H319.577L302.585 90H282.713Z" fill="url(#paint1_linear_658_10)"/>
<path d="M346.045 21.84H363.229L369.469 42.864L375.805 21.84H392.989L381.469 54.384L386.365 68.304L401.053 21.84H421.405L395.677 90H379.453L369.469 65.616L359.581 90H343.357L317.629 21.84H337.885L352.669 68.304L357.373 54.384L346.045 21.84ZM416.043 74.736C416.043 71.344 416.971 68.368 418.827 65.808C420.683 63.184 423.243 61.136 426.507 59.664C429.835 58.192 433.611 57.456 437.835 57.456C439.819 57.456 441.675 57.616 443.403 57.936C445.195 58.256 446.731 58.736 448.011 59.376V57.84C448.011 55.472 447.307 53.712 445.899 52.56C444.555 51.408 442.347 50.832 439.275 50.832C436.459 50.832 433.803 51.312 431.307 52.272C428.875 53.168 426.315 54.512 423.627 56.304L418.347 44.976C421.739 42.8 425.291 41.2 429.003 40.176C432.779 39.088 436.811 38.544 441.099 38.544C449.099 38.544 455.275 40.368 459.627 44.016C464.043 47.6 466.251 52.944 466.251 60.048V69.84C466.251 71.568 466.507 72.784 467.019 73.488C467.531 74.128 468.427 74.512 469.707 74.64V90C468.235 90.32 466.827 90.544 465.483 90.672C464.203 90.864 463.051 90.96 462.027 90.96C458.763 90.96 456.267 90.384 454.539 89.232C452.875 88.016 451.787 86.256 451.275 83.952L450.891 82.128C448.651 85.008 446.059 87.216 443.115 88.752C440.171 90.224 437.035 90.96 433.707 90.96C430.379 90.96 427.371 90.256 424.683 88.848C421.995 87.44 419.883 85.52 418.347 83.088C416.811 80.592 416.043 77.808 416.043 74.736ZM445.611 75.984C446.315 75.472 446.891 74.928 447.339 74.352C447.787 73.712 448.011 73.072 448.011 72.432V68.688C446.987 68.304 445.803 67.984 444.459 67.728C443.179 67.472 442.027 67.344 441.003 67.344C438.827 67.344 436.971 67.888 435.435 68.976C433.963 70.064 433.227 71.44 433.227 73.104C433.227 74 433.483 74.832 433.995 75.6C434.507 76.304 435.211 76.88 436.107 77.328C437.003 77.712 438.027 77.904 439.179 77.904C440.267 77.904 441.387 77.744 442.539 77.424C443.755 77.04 444.779 76.56 445.611 75.984ZM486.713 90L469.721 39.504H488.441L497.465 73.776L506.585 39.504H523.577L506.585 90H486.713ZM551.503 90.96C547.087 90.96 543.151 90.288 539.695 88.944C536.239 87.536 533.327 85.648 530.959 83.28C528.655 80.912 526.895 78.192 525.679 75.12C524.463 72.048 523.855 68.816 523.855 65.424C523.855 60.56 524.911 56.112 527.023 52.08C529.135 47.984 532.239 44.72 536.335 42.288C540.431 39.792 545.487 38.544 551.503 38.544C557.519 38.544 562.575 39.76 566.671 42.192C570.767 44.624 573.871 47.824 575.983 51.792C578.095 55.76 579.151 60.08 579.151 64.752C579.151 65.712 579.087 66.704 578.959 67.728C578.895 68.688 578.799 69.552 578.671 70.32H543.247C543.375 72.112 543.855 73.584 544.687 74.736C545.583 75.824 546.671 76.624 547.951 77.136C549.295 77.648 550.671 77.904 552.079 77.904C554.063 77.904 555.919 77.456 557.647 76.56C559.439 75.664 560.623 74.416 561.199 72.816L576.655 77.232C575.311 79.92 573.423 82.288 570.991 84.336C568.623 86.384 565.807 88.016 562.543 89.232C559.279 90.384 555.599 90.96 551.503 90.96ZM542.863 59.376H559.567C559.375 57.712 558.895 56.304 558.127 55.152C557.423 54 556.463 53.104 555.247 52.464C554.095 51.824 552.751 51.504 551.215 51.504C549.679 51.504 548.303 51.824 547.087 52.464C545.935 53.104 544.975 54 544.207 55.152C543.503 56.304 543.055 57.712 542.863 59.376Z" fill="white"/>
<defs>
<linearGradient id="paint0_linear_658_10" x1="1.50835e-07" y1="57" x2="133" y2="52.5" gradientUnits="userSpaceOnUse">
<stop offset="0.0409998" stop-color="#8F49C5"/>
<stop offset="1" stop-color="#4A2086"/>
</linearGradient>
<linearGradient id="paint1_linear_658_10" x1="140" y1="56.5" x2="307" y2="56" gradientUnits="userSpaceOnUse">
<stop stop-color="#8F49C5"/>
<stop offset="0.996293" stop-color="#4A2086"/>
</linearGradient>
</defs>
</svg>
